<?xml version="1.0" standalone="no"?><!DOCTYPE svg PUBLIC "-//W3C//DTD SVG 1.1//EN" "http://www.w3.org/Graphics/SVG/1.1/DTD/svg11.dtd"><svg t="1700101385415" class="icon" viewBox="0 0 1024 1024" version="1.1" xmlns="http://www.w3.org/2000/svg" p-id="2510" xmlns:xlink="http://www.w3.org/1999/xlink" width="200" height="200"><path d="M512 516.48c-138.154667 0-276.053333-41.941333-374.357333-125.653333a28.16 28.16 0 0 1 16.896-49.450667 28.458667 28.458667 0 0 1 20.565333 6.997333c173.312 149.12 501.205333 149.12 673.792 0a28.458667 28.458667 0 0 1 40.064 2.56 28.16 28.16 0 0 1-2.645333 39.936c-98.261333 83.669333-236.202667 125.610667-374.314667 125.610667z m-102.570667 123.392a23.296 23.296 0 0 1-5.077333 0 27.733333 27.733333 0 0 1-23.381333-33.749333l18.730666-109.952a28.458667 28.458667 0 0 1 56.149334 9.685333l-18.730667 109.952a28.032 28.032 0 0 1-27.733333 24.064z m420.736-55.893333a27.733333 27.733333 0 0 1-19.84-8.405334l-92.245333-93.184a27.904 27.904 0 0 1 27.221333-47.658666 28.16 28.16 0 0 1 12.629334 8.533333l92.288 93.141333a27.904 27.904 0 0 1 0 39.552 29.312 29.312 0 0 1-20.053334 7.978667z m-636.373333 0a29.226667 29.226667 0 0 1-18.688-8.021334 27.861333 27.861333 0 0 1 0-39.552l92.245333-93.184a28.16 28.16 0 0 1 50.602667 10.624 27.904 27.904 0 0 1-11.861333 28.544L213.845333 575.573333a27.818667 27.818667 0 0 1-20.053333 8.362667z m422.058667 55.893333a28.032 28.032 0 0 1-27.52-23.125333l-18.688-109.952a27.861333 27.861333 0 0 1 21.248-36.266667 28.16 28.16 0 0 1 33.408 25.6l18.688 109.994667a27.946667 27.946667 0 0 1-22.656 32.426666 23.04 23.04 0 0 1-4.48 1.28v0.042667z" fill="#999999" p-id="2511"></path></svg>