<?xml version="1.0" standalone="no"?><!DOCTYPE svg PUBLIC "-//W3C//DTD SVG 1.1//EN" "http://www.w3.org/Graphics/SVG/1.1/DTD/svg11.dtd"><svg t="1700101364532" class="icon" viewBox="0 0 1024 1024" version="1.1" xmlns="http://www.w3.org/2000/svg" p-id="1524" xmlns:xlink="http://www.w3.org/1999/xlink" width="200" height="200"><path d="M512 298.667A378.453 378.453 0 0 1 850.773 512a2.347 2.347 0 0 1 0 1.707A376.32 376.32 0 0 1 173.227 512a2.347 2.347 0 0 1 0-1.707A378.453 378.453 0 0 1 512 298.667M512 256a418.773 418.773 0 0 0-377.173 236.587 44.373 44.373 0 0 0 0 38.826 418.987 418.987 0 0 0 754.346 0 44.373 44.373 0 0 0 0-38.826A418.773 418.773 0 0 0 512 256z" fill="#333333" p-id="1525"></path><path d="M512 426.667A85.333 85.333 0 1 1 426.667 512 85.333 85.333 0 0 1 512 426.667M512 384a128 128 0 1 0 128 128 128 128 0 0 0-128-128z" fill="#333333" p-id="1526"></path></svg>